<svg width="111" height="24" viewBox="0 0 111 24" fill="none" xmlns="http://www.w3.org/2000/svg">
<path d="M15.5315 23.5445V6.30657H11.0088V16.2569C11.0088 18.5343 9.78169 20.181 7.46774 20.181C5.53945 20.181 4.55778 19.1299 4.55778 16.9577V6.30657H0V17.6584C0 21.4423 2.41913 24 5.85499 24C8.23906 24 10.0271 23.0891 11.2191 21.127V23.5445H15.5315Z" fill="#0A36FB"/>
<path d="M33.1666 23.5445V11.5971C33.1666 7.84818 30.7475 5.8511 27.4518 5.8511C24.6821 5.8511 22.9291 6.90219 21.8773 8.8292V6.30657H17.5299V23.5445H22.0877V13.6642C22.0877 11.0365 23.2447 9.70511 25.6287 9.70511C27.8024 9.70511 28.5738 10.4409 28.5738 13.1037V23.5445H33.1666Z" fill="#0A36FB"/>
<path d="M39.8255 23.5445V6.30657H35.2677V23.5445H39.8255ZM39.8255 4.23942V0H35.2677V4.23942H39.8255Z" fill="#0A36FB"/>
<path d="M50.0764 20.2861C47.9027 20.2861 46.2198 18.254 46.2198 15.346C46.2198 11.5971 47.517 9.74015 50.0413 9.74015C52.7059 9.74015 53.968 11.527 53.968 15.0657C53.968 18.1489 52.3553 20.2861 50.0764 20.2861ZM46.2899 23.5445L46.325 21.4423C47.4118 23.1942 49.0246 24 51.1282 24C55.4756 24 58.5959 20.5664 58.5959 14.7504C58.5959 9.52993 55.9664 5.8511 51.5138 5.8511C49.3752 5.8511 47.6923 6.72701 46.3951 8.5489V0H41.9074V23.5445H46.2899Z" fill="#0A36FB"/>
<path d="M70.7411 16.9927C70.7061 19.0248 68.9531 20.7416 66.6041 20.7416C65.1666 20.7416 64.3953 20.1109 64.3953 18.8146C64.3953 17.3431 65.2367 16.6073 67.8312 16.1168C69.514 15.8015 70.3204 15.5562 70.7762 15.1007L70.7411 16.9927ZM75.334 23.5445V12.6482C75.334 8.30365 73.4407 5.8511 67.9714 5.8511C62.432 5.8511 60.4686 8.33869 60.3985 11.9124H64.6407C64.8511 10.3708 65.6925 9.35474 67.7611 9.35474C69.5491 9.35474 70.671 10.0204 70.671 11.1416C70.671 12.3328 70.0399 12.7883 67.7611 13.1037C63.1682 13.7343 59.8375 14.2949 59.8375 19.2701C59.8375 22.073 61.6606 24 65.5873 24C67.9013 24 69.7244 23.1942 70.8113 22.0029C70.8463 22.5285 70.9515 23.1241 71.0917 23.5445H75.334Z" fill="#0A36FB"/>
<path d="M92.9806 23.5445V11.5971C92.9806 7.84818 90.5614 5.8511 87.2658 5.8511C84.4961 5.8511 82.7431 6.90219 81.6913 8.8292V6.30657H77.3439V23.5445H81.9017V13.6642C81.9017 11.0365 83.0586 9.70511 85.4427 9.70511C87.6164 9.70511 88.3877 10.4409 88.3877 13.1037V23.5445H92.9806Z" fill="#0A36FB"/>
<path d="M110.683 23.5445L105.039 12.6482L110.824 6.30657H105.249L99.5694 12.8584V0H94.9765V23.5445H99.5694V18.0788L101.778 15.8015L105.565 23.5445H110.683Z" fill="#0A36FB"/>
</svg>
