<svg width="261" height="97" viewBox="0 0 261 97" fill="none" xmlns="http://www.w3.org/2000/svg">
<path d="M5.40444 49.0144C8.50686 49.0144 11.4724 47.5677 14.3569 46.5556C25.4238 42.6725 36.2007 38.0645 47.3926 34.514C74.0568 26.055 101.259 20.2375 128.469 13.8351C150.478 8.65649 171.566 6.43293 194.036 5.00878C212.005 3.86989 231.259 0.743249 249.327 2.55001C253.393 2.95664 256.868 5.65281 258.216 9.54804C260.387 15.8205 256.013 20.8357 251.533 24.6159C239.771 34.5403 228.439 42.2255 214.21 48.1317C206.748 51.2295 199.561 54.9771 192.081 58.0298C183.917 61.3622 175.192 63.2057 167.116 66.667C152.433 72.9595 136.025 76.3972 120.525 80.2218C105.285 83.9824 90.2511 87.7362 74.8803 91.0025C55.7106 95.0761 34.5953 98.7891 16.7526 89.8677C11.6142 87.2985 2 80.5736 2 73.9803C2 67.3105 6.04878 64.7479 8.80889 59.2277" stroke="#F1D302" stroke-width="3" stroke-linecap="round"/>
</svg>
